<svg width="28" height="24" viewBox="0 0 28 24" fill="none" xmlns="http://www.w3.org/2000/svg">
<g id="icons">
<path id="pic" d="M28 4.66667C28 2.1 25.9 0 23.3333 0H4.66667C2.1 0 0 2.1 0 4.66667V18.6667C0 21.2333 2.1 23.3333 4.66667 23.3333H23.3333C25.9 23.3333 28 21.2333 28 18.6667V4.66667ZM7 4.66667C8.28333 4.66667 9.33333 5.71667 9.33333 7C9.33333 8.28333 8.28333 9.33333 7 9.33333C5.71667 9.33333 4.66667 8.28333 4.66667 7C4.66667 5.71667 5.71667 4.66667 7 4.66667ZM25.6667 18.6667C25.6667 19.95 24.6167 21 23.3333 21H5.13333C4.08333 21 3.61667 19.7167 4.31667 19.0167L8.51667 14.8167C8.98333 14.35 9.68333 14.35 10.15 14.8167L10.85 15.5167C11.3167 15.9833 12.0167 15.9833 12.4833 15.5167L20.1833 7.81667C20.65 7.35 21.35 7.35 21.8167 7.81667L25.3167 11.3167C25.55 11.55 25.6667 11.7833 25.6667 12.1333V18.6667Z" fill="black"/>
</g>
</svg>
