<svg xmlns="http://www.w3.org/2000/svg" width="63" height="63" viewBox="0 0 63 63" fill="none">
    <path d="M39.267 16.3901C38.9921 15.5838 38.1157 15.153 37.3095 15.4279C36.5032 15.7027 36.0724 16.5791 36.3473 17.3854L43.0656 37.0935C43.3404 37.8998 44.2168 38.3306 45.0231 38.0557C45.8294 37.7809 46.2601 36.9045 45.9853 36.0982L39.267 16.3901Z" stroke="black" stroke-width="2" stroke-miterlimit="10"/>
    <path d="M24.7611 26.2235L24.0443 26.4678C23.828 26.5475 23.6522 26.7099 23.5555 26.9191C23.4587 27.1284 23.4491 27.3675 23.5285 27.5839L26.6866 36.8481C26.7559 37.068 26.9096 37.2514 27.114 37.358C27.3184 37.4646 27.5567 37.4858 27.7767 37.4168L28.4942 37.1722L28.738 37.1298L43.0079 36.9249L36.4045 17.554L24.9808 26.1079L24.7611 26.2235Z" stroke="black" stroke-width="2" stroke-miterlimit="10"/>
    <path d="M16.8357 29.7399L23.4905 27.4714L26.7253 36.9605L20.0705 39.229C19.6024 39.3886 19.1075 39.4544 18.614 39.4227C18.1205 39.391 17.6381 39.2624 17.1943 39.0442C16.7505 38.8261 16.354 38.5227 16.0275 38.1513C15.701 37.7799 15.4508 37.3479 15.2912 36.8798L14.4865 34.5192C14.1643 33.5739 14.2307 32.5393 14.6713 31.643C15.1119 30.7467 15.8904 30.0622 16.8357 29.7399Z" stroke="black" stroke-width="2" stroke-miterlimit="10"/>
    <path d="M28.3235 48.6368L24.4636 49.9526C24.388 49.9784 24.308 49.989 24.2282 49.9839C24.1485 49.9788 24.0706 49.958 23.9989 49.9227C23.9271 49.8875 23.8631 49.8384 23.8103 49.7784C23.7576 49.7184 23.7171 49.6486 23.6913 49.573L20.1553 39.2L23.8049 37.9558L26.485 45.8179C26.5219 45.9258 26.5883 46.0211 26.6766 46.0931L28.5105 47.5864C28.5954 47.6548 28.6604 47.7448 28.6987 47.8469C28.7369 47.949 28.747 48.0596 28.7279 48.1669C28.7088 48.2743 28.6611 48.3746 28.59 48.4572C28.5188 48.5399 28.4268 48.6019 28.3235 48.6368Z" stroke="black" stroke-width="2" stroke-miterlimit="10"/>
    <path d="M44.6914 25.1327L46.8812 24.3862" stroke="black" stroke-width="2" stroke-miterlimit="10" stroke-linecap="round"/>
    <path d="M43.1978 20.7531L44.89 18.5467" stroke="black" stroke-width="2" stroke-miterlimit="10" stroke-linecap="round"/>
    <path d="M46.1846 29.5122L48.872 30.2256" stroke="black" stroke-width="2" stroke-miterlimit="10" stroke-linecap="round"/>
</svg>
