<svg width="16" height="21" viewBox="0 0 16 21" fill="none" xmlns="http://www.w3.org/2000/svg">
<g id="8665727_question_icon 1" clip-path="url(#clip0_65_778)">
<path id="Vector" d="M10.1655 1.65302H5.04077C2.53565 1.65302 0.498047 3.38394 0.498047 5.51203C0.498047 6.22233 1.1752 6.76219 2.01229 6.76219C2.84938 6.76219 3.52653 6.18655 3.52653 5.51203C3.52653 4.80293 4.2051 4.22569 5.04077 4.22569H10.1655C11.5141 4.22569 12.612 5.15788 12.612 6.30755C12.612 7.10025 12.0929 7.81377 11.1687 8.21012L6.54555 10.5123C6.03922 10.7454 5.79789 11.1675 5.79789 11.6217V13.2296C5.79789 13.9399 6.47504 14.5156 7.31213 14.5156C8.14922 14.5156 8.82637 13.9399 8.82637 13.2296V12.3574L12.612 10.468C14.4797 9.67413 15.6405 8.07948 15.6405 6.30755C15.6405 3.7409 13.1845 1.65302 10.1655 1.65302ZM7.31213 16.4455C6.26683 16.4455 5.41933 17.1654 5.41933 18.0534C5.41933 18.9414 6.26683 19.6252 7.31213 19.6252C8.35743 19.6252 9.20493 18.9056 9.20493 18.0534C9.20493 17.2012 8.3579 16.4455 7.31213 16.4455Z" fill="black"/>
</g>
<defs>
<clipPath id="clip0_65_778">
<rect width="15.1424" height="20.5814" fill="white" transform="translate(0.498047 0.366272)"/>
</clipPath>
</defs>
</svg>
