<svg xmlns="http://www.w3.org/2000/svg" width="49" height="49" viewBox="0 0 49 49" fill="none">
    <g clip-path="url(#clip0_546_139)">
        <path opacity="0.966" fill-rule="evenodd" clip-rule="evenodd" d="M45.4111 5.69432C45.3473 5.72621 45.2836 5.75812 45.2197 5.79002C44.9735 5.89101 44.7183 5.90695 44.4541 5.83787C41.5663 3.74734 38.5356 3.52404 35.3623 5.16795C31.6913 7.66311 30.5589 11.0287 31.9648 15.2646C32.5107 16.591 33.3561 17.6757 34.501 18.5185C36.8784 20.3554 39.4944 20.7542 42.3486 19.7148C45.6663 18.2462 47.3889 15.694 47.5166 12.0586C47.5319 11.082 47.3565 10.1409 46.9902 9.23533C46.7246 8.73596 46.4853 8.22555 46.2725 7.70408C46.3271 7.4349 46.4547 7.21159 46.6553 7.03416C47.0305 6.87609 47.3655 6.93989 47.6602 7.22557C48.2933 8.34461 48.724 9.52495 48.9521 10.7666C48.9521 11.6917 48.9521 12.6168 48.9521 13.542C47.8198 18.5971 44.6616 21.3405 39.4775 21.7724C39.0334 21.7025 38.5868 21.6706 38.1377 21.6767C38.1841 27.3914 38.1363 33.1017 37.9941 38.8076C37.6443 39.604 37.0541 40.1304 36.2236 40.3867C34.7923 40.5203 33.3567 40.5682 31.917 40.5303C31.933 42.2532 31.917 43.9759 31.8691 45.6982C31.7749 46.0969 31.5196 46.2883 31.1035 46.2724C30.86 46.2835 30.6527 46.2038 30.4814 46.0332C28.5674 44.2148 26.6533 42.3965 24.7393 40.5781C24.1254 40.5658 23.5193 40.5019 22.9209 40.3867C22.6894 40.2423 22.5937 40.035 22.6338 39.7646C22.638 39.4211 22.7975 39.1818 23.1123 39.0469C23.7822 38.983 24.4521 38.983 25.1221 39.0469C26.8922 40.5778 28.6149 42.1569 30.29 43.7842C30.2958 43.8361 30.3277 43.868 30.3857 43.8799C30.4813 42.4138 30.5133 40.9464 30.4814 39.4775C30.5213 39.262 30.6488 39.1184 30.8643 39.0469C32.1399 38.999 33.416 38.983 34.6924 38.999C35.1486 39.0286 35.5952 38.9807 36.0322 38.8554C36.3412 38.7059 36.5485 38.4666 36.6543 38.1377C36.734 32.5228 36.7181 26.9083 36.6064 21.2939C33.6521 20.2535 31.6105 18.2757 30.4814 15.3603C23.1764 15.2646 15.871 15.2328 8.56543 15.2646C8.23688 15.1201 8.04547 14.865 7.99121 14.499C8.02362 14.1957 8.18311 13.9883 8.46973 13.8769C15.6474 13.8291 22.8251 13.8131 30.0029 13.8291C29.4626 8.86228 31.4405 5.33722 35.9365 3.25389C39.386 2.05575 42.5602 2.55022 45.459 4.73729C45.6622 5.07081 45.6462 5.38982 45.4111 5.69432Z" fill="#010100"/>
        <path fill-rule="evenodd" clip-rule="evenodd" d="M45.2197 5.79001C45.6784 6.79946 46.0134 7.85219 46.2246 8.94822C46.5692 13.1945 44.8625 16.3048 41.1045 18.2793C38.927 19.1301 36.7258 19.2099 34.501 18.5185C33.3561 17.6757 32.5107 16.591 31.9648 15.2646C30.5589 11.0287 31.6913 7.6631 35.3623 5.16794C38.5356 3.52403 41.5663 3.74733 44.4541 5.83786C44.7183 5.90694 44.9735 5.891 45.2197 5.79001Z" fill="#FDDE7C"/>
        <path fill-rule="evenodd" clip-rule="evenodd" d="M45.4111 5.69434C45.8935 6.08088 46.3082 6.52749 46.6553 7.03418C46.4547 7.21161 46.3271 7.43492 46.2725 7.7041C46.4853 8.22557 46.7246 8.73598 46.9902 9.23535C47.3565 10.1409 47.5319 11.082 47.5166 12.0586C47.3889 15.6941 45.6663 18.2462 42.3486 19.7148C39.4944 20.7542 36.8784 20.3554 34.501 18.5186C36.7258 19.2099 38.927 19.1301 41.1045 18.2793C44.8625 16.3048 46.5692 13.1945 46.2246 8.94824C46.0134 7.85222 45.6784 6.79949 45.2197 5.79004C45.2836 5.75814 45.3473 5.72623 45.4111 5.69434Z" fill="#FCCD63"/>
        <path fill-rule="evenodd" clip-rule="evenodd" d="M38.7119 5.98146C41.7126 5.93539 43.1322 7.40283 42.9707 10.3838C42.568 11.8554 41.6269 12.7486 40.1475 13.0635C40.1633 13.9573 40.1475 14.8506 40.0996 15.7432C39.9013 16.1875 39.5664 16.3311 39.0947 16.1738C38.9465 16.0577 38.8349 15.9141 38.7598 15.7432C38.6959 14.5629 38.6959 13.3825 38.7598 12.2022C39.0104 11.8778 39.3454 11.7343 39.7647 11.7715C41.214 11.3782 41.8042 10.4371 41.5352 8.94826C40.8347 7.47046 39.7341 7.07169 38.2334 7.75197C37.5536 8.26625 37.2187 8.95212 37.2285 9.80958C36.8216 10.3984 36.3749 10.4303 35.8887 9.90529C35.7462 8.51575 36.2406 7.41517 37.3721 6.60353C37.806 6.34826 38.2525 6.1409 38.7119 5.98146Z" fill="#040402"/>
        <path opacity="0.969" fill-rule="evenodd" clip-rule="evenodd" d="M6.17285 14.499C6.13673 14.7869 6.00913 15.0262 5.79004 15.2168C4.6416 15.2487 3.49316 15.2807 2.34473 15.3125C1.93431 15.4622 1.63126 15.7333 1.43555 16.126C1.37174 23.4633 1.37174 30.8004 1.43555 38.1377C1.57356 38.499 1.81282 38.7701 2.15332 38.9512C8.18262 38.9831 14.2119 39.015 20.2412 39.0469C20.5369 39.2103 20.7283 39.4495 20.8154 39.7647C20.7415 40.1416 20.5183 40.3809 20.1455 40.4824C14.2438 40.5463 8.34213 40.5463 2.44043 40.4824C1.19807 40.3396 0.368646 39.6856 -0.0478516 38.5205C-0.0478516 30.9281 -0.0478516 23.3356 -0.0478516 15.7432C0.303049 14.739 1.00487 14.1169 2.05762 13.877C3.26986 13.8131 4.48209 13.8131 5.69434 13.877C5.98471 13.991 6.14421 14.1983 6.17285 14.499Z" fill="#000100"/>
        <path fill-rule="evenodd" clip-rule="evenodd" d="M6.17285 14.499C6.77897 14.499 7.38509 14.499 7.99121 14.499C8.04547 14.865 8.23688 15.1201 8.56543 15.2646C15.3123 15.3603 22.0754 15.3922 28.8545 15.3604C29.7768 18.3722 31.627 20.6212 34.4053 22.1074C34.7349 22.4052 34.9423 22.772 35.0273 23.208C35.0912 28.2484 35.0912 33.2887 35.0273 38.3291C34.9144 38.555 34.8027 38.7782 34.6924 38.999C33.416 38.983 32.1399 38.999 30.8643 39.0469C30.6488 39.1185 30.5213 39.262 30.4814 39.4775C30.4176 40.9131 30.3539 42.3486 30.29 43.7842C28.6149 42.1569 26.8922 40.5778 25.1221 39.0469C24.4521 38.983 23.7822 38.983 23.1123 39.0469C22.7975 39.1818 22.638 39.4211 22.6338 39.7646C22.0277 39.7646 21.4215 39.7646 20.8154 39.7646C20.7283 39.4495 20.5369 39.2102 20.2412 39.0469C14.2119 39.015 8.18262 38.983 2.15332 38.9512C1.81282 38.7701 1.57356 38.499 1.43555 38.1377C1.37174 30.8004 1.37174 23.4632 1.43555 16.126C1.63126 15.7333 1.93431 15.4622 2.34473 15.3125C3.49316 15.2806 4.6416 15.2487 5.79004 15.2168C6.00913 15.0262 6.13673 14.7869 6.17285 14.499Z" fill="#B2E49E"/>
        <path fill-rule="evenodd" clip-rule="evenodd" d="M8.56543 15.2646C15.871 15.2328 23.1764 15.2646 30.4814 15.3603C31.6105 18.2757 33.6521 20.2535 36.6064 21.2939C36.7181 26.9083 36.734 32.5228 36.6543 38.1377C36.5485 38.4666 36.3412 38.7059 36.0322 38.8555C35.5952 38.9807 35.1486 39.0286 34.6924 38.999C34.8027 38.7782 34.9144 38.5549 35.0273 38.3291C35.0912 33.2887 35.0912 28.2484 35.0273 23.208C34.9423 22.772 34.7349 22.4051 34.4053 22.1074C31.627 20.6212 29.7768 18.3722 28.8545 15.3603C22.0754 15.3922 15.3123 15.3602 8.56543 15.2646Z" fill="#91D09F"/>
        <path fill-rule="evenodd" clip-rule="evenodd" d="M39.1904 17.083C39.8754 17.05 40.1785 17.369 40.0996 18.04C39.7158 18.628 39.3011 18.6599 38.8555 18.1357C38.7275 17.697 38.8391 17.3461 39.1904 17.083Z" fill="#12100A"/>
        <path fill-rule="evenodd" clip-rule="evenodd" d="M7.99121 22.6338C10.844 22.2843 12.7102 23.4646 13.5898 26.1748C13.8308 27.4832 13.5916 28.6954 12.8721 29.8115C13.1612 30.1164 13.4323 30.4355 13.6855 30.7686C13.7542 31.4454 13.4511 31.7485 12.7764 31.6777C12.4433 31.4245 12.1242 31.1534 11.8193 30.8643C9.19176 32.3951 6.97463 31.9486 5.16797 29.5244C3.82144 26.2722 4.76252 23.9754 7.99121 22.6338Z" fill="#030402"/>
        <path fill-rule="evenodd" clip-rule="evenodd" d="M15.9346 22.6338C16.3272 22.5638 16.6622 22.6595 16.9395 22.9209C16.9426 25.0005 17.0064 27.0741 17.1309 29.1416C17.6612 30.1162 18.4746 30.4832 19.5713 30.2422C20.1805 30.0792 20.6112 29.7124 20.8633 29.1416C20.9878 27.0741 21.0515 25.0005 21.0547 22.9209C21.4694 22.5381 21.8841 22.5381 22.2988 22.9209C22.4561 24.9221 22.488 26.9319 22.3945 28.9502C22.0402 30.5166 21.0673 31.4257 19.4756 31.6777C18 31.8412 16.8356 31.3148 15.9824 30.0986C15.8276 29.7572 15.7 29.4062 15.5996 29.0459C15.5358 27.068 15.5358 25.0902 15.5996 23.1123C15.695 22.9378 15.8067 22.7783 15.9346 22.6338Z" fill="#060705"/>
        <path fill-rule="evenodd" clip-rule="evenodd" d="M24.4521 22.6338C24.7093 22.6181 24.9645 22.6341 25.2178 22.6816C25.3327 22.768 25.4125 22.8796 25.457 23.0166C25.5209 25.792 25.5209 28.5674 25.457 31.3427C24.9708 31.8678 24.5241 31.8359 24.1172 31.247C24.0534 28.5355 24.0534 25.8238 24.1172 23.1123C24.2126 22.9378 24.3243 22.7783 24.4521 22.6338Z" fill="#060705"/>
        <path fill-rule="evenodd" clip-rule="evenodd" d="M27.6103 22.5381C29.3652 22.5221 31.1198 22.5381 32.874 22.586C33.4938 22.8763 33.6055 23.307 33.209 23.8779C31.7856 25.9748 30.3979 28.0962 29.0459 30.2422C30.3857 30.2741 31.7256 30.306 33.0654 30.3379C33.6543 30.7448 33.6862 31.1915 33.1611 31.6777C31.2471 31.7416 29.333 31.7416 27.4189 31.6777C27.0307 31.4914 26.8871 31.1883 26.9883 30.7686C28.4587 28.5484 29.9101 26.3153 31.3428 24.0693C30.0679 23.9896 28.7919 23.9418 27.5146 23.9258C26.9886 23.4169 27.0204 22.9544 27.6103 22.5381Z" fill="#040604"/>
        <path fill-rule="evenodd" clip-rule="evenodd" d="M8.56543 23.9737C10.3005 23.9076 11.4968 24.6732 12.1543 26.2705C12.2181 26.8448 12.2181 27.419 12.1543 27.9932C12.0628 28.2685 11.9352 28.5238 11.7715 28.7588C11.4306 28.3046 10.9999 27.9855 10.4795 27.8018C9.95906 27.9177 9.75167 28.2367 9.85742 28.7588C10.1426 29.1238 10.4456 29.4748 10.7666 29.8116C9.27147 30.5999 7.91567 30.4085 6.69922 29.2373C5.86154 28.0532 5.76584 26.8091 6.41211 25.5049C6.94337 24.7219 7.66114 24.2115 8.56543 23.9737Z" fill="#B0E29D"/>
        <path fill-rule="evenodd" clip-rule="evenodd" d="M30.4814 39.4775C30.5133 40.9464 30.4813 42.4138 30.3857 43.8799C30.3277 43.868 30.2958 43.8361 30.29 43.7842C30.3539 42.3486 30.4176 40.9131 30.4814 39.4775Z" fill="#252F21"/>
    </g>
    <defs>
        <clipPath id="clip0_546_139">
            <rect width="49" height="49" fill="white"/>
        </clipPath>
    </defs>
</svg>
