<svg width="37" height="32" viewBox="0 0 37 32" fill="none" xmlns="http://www.w3.org/2000/svg">
<g id="6472608_birthday_cake_celebration_festival_party_icon 1">
<path id="Vector" d="M23.5252 26.08L23.4569 25.9L23.3657 25.74L23.229 25.6C23.1313 25.5117 23.0145 25.4415 22.8853 25.3936C22.7562 25.3456 22.6174 25.3209 22.4771 25.3209C22.3369 25.3209 22.1981 25.3456 22.069 25.3936C21.9398 25.4415 21.8229 25.5117 21.7252 25.6L21.5885 25.74L21.4974 25.9C21.4925 25.9599 21.4925 26.0201 21.4974 26.08C21.4859 26.1429 21.4859 26.2071 21.4974 26.27C21.4977 26.3901 21.5248 26.509 21.5771 26.62C21.6352 26.7321 21.7163 26.8338 21.8164 26.92C21.9108 27.0117 22.0276 27.0835 22.1582 27.13C22.2888 27.1753 22.4278 27.199 22.5683 27.2H22.7733L22.9784 27.14L23.1607 27.06C23.2207 27.0276 23.2745 26.9871 23.3202 26.94C23.4247 26.8571 23.5065 26.7545 23.5594 26.64C23.6118 26.529 23.6389 26.4101 23.6392 26.29C23.6088 26.217 23.5707 26.1467 23.5252 26.08Z" fill="white"/>
<path id="Vector_2" d="M15.0151 26.08L14.9468 25.9L14.8101 25.74L14.6734 25.6C14.5757 25.5117 14.4588 25.4415 14.3296 25.3936C14.2005 25.3456 14.0617 25.3209 13.9215 25.3209C13.7813 25.3209 13.6425 25.3456 13.5133 25.3936C13.3841 25.4415 13.2673 25.5117 13.1696 25.6L13.0329 25.74L12.9417 25.9C12.9369 25.9599 12.9369 26.0201 12.9417 26.08C12.9302 26.1429 12.9302 26.2071 12.9417 26.27C12.942 26.3901 12.9691 26.509 13.0215 26.62C13.0795 26.7321 13.1606 26.8338 13.2607 26.92C13.3551 27.0117 13.472 27.0835 13.6025 27.13C13.7331 27.1753 13.8722 27.199 14.0126 27.2H14.2177L14.4227 27.14L14.605 27.06C14.665 27.0276 14.7188 26.9871 14.7645 26.94C14.869 26.8571 14.9508 26.7545 15.0038 26.64C15.0561 26.529 15.0832 26.4101 15.0835 26.29C15.0679 26.2183 15.045 26.1481 15.0151 26.08Z" fill="white"/>
<path id="Vector_3" d="M10.7657 22.34L10.6974 22.16L10.6062 22L10.4695 21.86C10.3718 21.7717 10.2549 21.7015 10.1258 21.6536C9.99664 21.6056 9.85784 21.5809 9.71762 21.5809C9.57739 21.5809 9.4386 21.6056 9.30944 21.6536C9.18029 21.7015 9.06341 21.7717 8.96572 21.86L8.82901 22L8.73787 22.16C8.73302 22.2199 8.73302 22.2801 8.73787 22.34C8.72637 22.4029 8.72637 22.4671 8.73787 22.53C8.73817 22.6501 8.76526 22.769 8.81762 22.88C8.87565 22.9921 8.95675 23.0938 9.05686 23.18C9.15129 23.2717 9.26813 23.3435 9.39863 23.39C9.52925 23.4353 9.6683 23.4591 9.80876 23.46H10.0138L10.2189 23.4L10.2531 23.3C10.3131 23.2676 10.3669 23.2271 10.4126 23.18C10.517 23.0971 10.5988 22.9945 10.6518 22.88C10.7042 22.769 10.7312 22.6501 10.7315 22.53C10.7486 22.4675 10.76 22.404 10.7657 22.34Z" fill="white"/>
<path id="Vector_4" d="M19.276 22.34L19.2076 22.16L19.1165 22L18.9798 21.86C18.8821 21.7717 18.7652 21.7015 18.636 21.6536C18.5069 21.6056 18.3681 21.5809 18.2279 21.5809C18.0876 21.5809 17.9488 21.6056 17.8197 21.6536C17.6905 21.7015 17.5737 21.7717 17.476 21.86L17.3393 22L17.2481 22.16C17.2433 22.2199 17.2433 22.2801 17.2481 22.34C17.2366 22.4029 17.2366 22.4671 17.2481 22.53C17.2484 22.6501 17.2755 22.769 17.3279 22.88C17.3859 22.9921 17.467 23.0938 17.5671 23.18C17.6615 23.2717 17.7784 23.3435 17.9089 23.39C18.0395 23.4353 18.1786 23.4591 18.319 23.46H18.5241L18.7291 23.4L18.9114 23.32C18.9714 23.2876 19.0252 23.2471 19.0709 23.2C19.1754 23.1171 19.2572 23.0145 19.3101 22.9C19.3625 22.789 19.3896 22.6701 19.3899 22.55C19.3596 22.477 19.3214 22.4067 19.276 22.34Z" fill="white"/>
<path id="Vector_5" d="M22.4659 17.25L22.3976 17.07L22.3064 16.91L22.1697 16.77C22.072 16.6817 21.9551 16.6115 21.826 16.5636C21.6968 16.5157 21.558 16.491 21.4178 16.491C21.2776 16.491 21.1388 16.5157 21.0096 16.5636C20.8805 16.6115 20.7636 16.6817 20.6659 16.77L20.5292 16.91L20.4381 17.07C20.4332 17.13 20.4332 17.1901 20.4381 17.25C20.4266 17.313 20.4266 17.3771 20.4381 17.44C20.4384 17.5601 20.4655 17.6791 20.5178 17.79C20.5758 17.9021 20.6569 18.0038 20.7571 18.09C20.8515 18.1818 20.9683 18.2535 21.0988 18.3C21.2294 18.3454 21.3685 18.3691 21.509 18.37H21.714L21.9191 18.31L22.1014 18.23C22.1614 18.1976 22.2152 18.1571 22.2609 18.11C22.3653 18.0271 22.4471 17.9246 22.5001 17.81C22.5524 17.6991 22.5795 17.5801 22.5798 17.46C22.5495 17.387 22.5114 17.3167 22.4659 17.25Z" fill="white"/>
<path id="Vector_6" d="M16.0862 17.25L16.0178 17.07L15.9495 16.92L15.8128 16.78C15.7151 16.6917 15.5982 16.6215 15.4691 16.5735C15.3399 16.5256 15.2011 16.5009 15.0609 16.5009C14.9207 16.5009 14.7819 16.5256 14.6527 16.5735C14.5236 16.6215 14.4067 16.6917 14.309 16.78L14.1723 16.92L14.0811 17.08C14.0763 17.1399 14.0763 17.2001 14.0811 17.26C14.0696 17.3229 14.0696 17.387 14.0811 17.45C14.0814 17.5701 14.1085 17.689 14.1609 17.8C14.2189 17.9121 14.3 18.0138 14.4001 18.1C14.4946 18.1917 14.6114 18.2635 14.7419 18.31C14.8725 18.3553 15.0116 18.379 15.152 18.38H15.3571L15.5621 18.32L15.7444 18.24C15.8044 18.2076 15.8582 18.1671 15.9039 18.12C16.0084 18.0371 16.0902 17.9345 16.1432 17.82C16.1955 17.709 16.2226 17.5901 16.2229 17.47C16.186 17.3928 16.1402 17.319 16.0862 17.25Z" fill="white"/>
<path id="Vector_7" d="M27.786 22.34L27.7176 22.16L27.6265 22L27.4898 21.86C27.3921 21.7717 27.2752 21.7015 27.1461 21.6536C27.0169 21.6056 26.8781 21.5809 26.7379 21.5809C26.5977 21.5809 26.4589 21.6056 26.3297 21.6536C26.2006 21.7015 26.0837 21.7717 25.986 21.86L25.8493 22L25.7581 22.16C25.7533 22.2199 25.7533 22.2801 25.7581 22.34C25.7466 22.4029 25.7466 22.4671 25.7581 22.53C25.7584 22.6501 25.7855 22.769 25.8379 22.88C25.8959 22.9921 25.977 23.0938 26.0771 23.18C26.1716 23.2717 26.2884 23.3435 26.4189 23.39C26.5495 23.4353 26.6886 23.4591 26.829 23.46H27.0341L27.2391 23.4L27.3417 23.3C27.4017 23.2676 27.4555 23.2271 27.5012 23.18C27.6057 23.0971 27.6874 22.9945 27.7404 22.88C27.7928 22.769 27.8199 22.6501 27.8202 22.53C27.8144 22.466 27.803 22.4024 27.786 22.34Z" fill="white"/>
<path id="Vector_8" d="M8.65813 17.86C8.93912 17.86 9.20861 17.762 9.4073 17.5876C9.60599 17.4132 9.71762 17.1767 9.71762 16.93V16C9.96288 16.2916 10.2819 16.5292 10.6497 16.694C11.0174 16.8589 11.4237 16.9465 11.8366 16.95C12.3376 16.9307 12.8249 16.8004 13.2531 16.5714C13.6814 16.3423 14.0367 16.022 14.286 15.64C14.6847 15.17 14.81 15.08 15.0265 15.08C15.2429 15.08 15.3683 15.17 15.767 15.64C16.0201 16.0196 16.3784 16.3369 16.8086 16.5624C17.2388 16.788 17.727 16.9144 18.2277 16.93C18.7287 16.9107 19.216 16.7804 19.6443 16.5514C20.0725 16.3223 20.4278 16.002 20.6771 15.62C21.0758 15.15 21.2012 15.06 21.4176 15.06C21.6341 15.06 21.7594 15.15 22.1695 15.62C22.4188 16.002 22.7741 16.3223 23.2024 16.5514C23.6306 16.7804 24.1179 16.9107 24.6189 16.93C25.0384 16.9215 25.4498 16.8266 25.8199 16.6529C26.1899 16.4792 26.5083 16.2316 26.7493 15.93V16.88C26.7493 17.128 26.8615 17.3658 27.0613 17.5412C27.261 17.7165 27.5319 17.815 27.8145 17.815C28.097 17.815 28.3679 17.7165 28.5677 17.5412C28.7674 17.3658 28.8796 17.128 28.8796 16.88V13.2C28.8755 12.6252 28.67 12.0654 28.2909 11.5967C27.9118 11.1279 27.3775 10.773 26.7607 10.58V8.58001L27.205 8.19001C28.0008 7.489 28.4477 6.53968 28.4477 5.55001C28.4477 4.56034 28.0008 3.61102 27.205 2.91001L26.4531 2.25001C26.3546 2.16293 26.2374 2.09382 26.1084 2.04666C25.9793 1.9995 25.8409 1.97522 25.7012 1.97522C25.5614 1.97522 25.423 1.9995 25.2939 2.04666C25.1649 2.09382 25.0477 2.16293 24.9493 2.25001L24.1974 2.91001C23.4015 3.61102 22.9546 4.56034 22.9546 5.55001C22.9546 6.53968 23.4015 7.489 24.1974 8.19001L24.6417 8.58001V10.4H19.2986V8.60001L19.7429 8.21001C20.5388 7.509 20.9857 6.55968 20.9857 5.57001C20.9857 4.58034 20.5388 3.63102 19.7429 2.93001L18.991 2.27001C18.8926 2.18293 18.7754 2.11382 18.6464 2.06666C18.5173 2.0195 18.3789 1.99522 18.2391 1.99522C18.0994 1.99522 17.961 2.0195 17.8319 2.06666C17.7029 2.11382 17.5857 2.18293 17.4872 2.27001L16.7353 2.93001C16.3399 3.27646 16.0262 3.68797 15.8121 4.14097C15.5981 4.59398 15.4879 5.07959 15.4879 5.57001C15.4879 6.06043 15.5981 6.54604 15.8121 6.99905C16.0262 7.45205 16.3399 7.86356 16.7353 8.21001L17.1796 8.60001V10.4H11.848V8.60001L12.2923 8.21001C12.6877 7.86356 13.0015 7.45205 13.2155 6.99905C13.4296 6.54604 13.5398 6.06043 13.5398 5.57001C13.5398 5.07959 13.4296 4.59398 13.2155 4.14097C13.0015 3.68797 12.6877 3.27646 12.2923 2.93001L11.5404 2.27001C11.4419 2.18293 11.3248 2.11382 11.1957 2.06666C11.0667 2.0195 10.9283 1.99522 10.7885 1.99522C10.6487 1.99522 10.5103 2.0195 10.3813 2.06666C10.2522 2.11382 10.1351 2.18293 10.0366 2.27001L9.28471 2.93001C8.48885 3.63102 8.04197 4.58034 8.04197 5.57001C8.04197 6.55968 8.48885 7.509 9.28471 8.21001L9.72901 8.60001V10.6C9.11363 10.7902 8.57946 11.1414 8.19853 11.6063C7.81759 12.0712 7.60822 12.6274 7.59863 13.2V16.93C7.59863 17.1767 7.71026 17.4132 7.90895 17.5876C8.10765 17.762 8.37713 17.86 8.65813 17.86ZM18.2277 4.26001C18.6257 4.61052 18.8491 5.08518 18.8491 5.58001C18.8491 6.07484 18.6257 6.5495 18.2277 6.90001C17.8298 6.5495 17.6064 6.07484 17.6064 5.58001C17.6064 5.08518 17.8298 4.61052 18.2277 4.26001ZM25.6784 4.26001C26.0763 4.61052 26.2997 5.08518 26.2997 5.58001C26.2997 6.07484 26.0763 6.5495 25.6784 6.90001C25.2804 6.5495 25.057 6.07484 25.057 5.58001C25.057 5.08518 25.2804 4.61052 25.6784 4.26001ZM10.7885 4.26001C11.1864 4.61052 11.4099 5.08518 11.4099 5.58001C11.4099 6.07484 11.1864 6.5495 10.7885 6.90001C10.3906 6.5495 10.1671 6.07484 10.1671 5.58001C10.1671 5.08518 10.3906 4.61052 10.7885 4.26001ZM10.7885 12.26H25.667C25.948 12.26 26.2175 12.358 26.4162 12.5324C26.6149 12.7068 26.7265 12.9434 26.7265 13.19V13.4C26.1688 13.659 25.6947 14.0374 25.348 14.5C24.9493 14.97 24.8239 15.06 24.5961 15.06C24.3683 15.06 24.2543 14.97 23.8442 14.5C23.5949 14.1181 23.2396 13.7977 22.8114 13.5686C22.3831 13.3396 21.8958 13.2093 21.3948 13.19C20.8938 13.2093 20.4066 13.3396 19.9783 13.5686C19.5501 13.7977 19.1948 14.1181 18.9455 14.5C18.5467 14.97 18.4214 15.06 18.205 15.06C17.9885 15.06 17.8632 14.97 17.4645 14.5C17.2152 14.1181 16.8599 13.7977 16.4316 13.5686C16.0034 13.3396 15.5161 13.2093 15.0151 13.19C14.5082 13.2043 14.0139 13.3322 13.5792 13.5615C13.1445 13.7908 12.7839 14.1139 12.5315 14.5C12.1328 14.97 12.0075 15.06 11.791 15.06C11.5746 15.06 11.4493 14.97 11.0505 14.5C10.7038 14.0374 10.2297 13.659 9.67205 13.4V13.2C9.67028 13.0727 9.6983 12.9465 9.75438 12.8291C9.81046 12.7117 9.89339 12.6056 9.99806 12.5175C10.1027 12.4294 10.2269 12.3611 10.3628 12.3168C10.4988 12.2725 10.6437 12.2532 10.7885 12.26Z" fill="white"/>
<path id="Vector_9" d="M33.1176 28.13H32.0581V21.6C32.0581 20.8574 31.7221 20.1452 31.1239 19.6201C30.5256 19.095 29.7143 18.8 28.8683 18.8H7.59865C6.75265 18.8 5.94129 19.095 5.34307 19.6201C4.74486 20.1452 4.40878 20.8574 4.40878 21.6V28.13H3.33789C3.05539 28.13 2.78445 28.2285 2.58469 28.4038C2.38493 28.5792 2.27271 28.817 2.27271 29.065C2.27271 29.313 2.38493 29.5508 2.58469 29.7261C2.78445 29.9015 3.05539 30 3.33789 30H33.1176C33.4001 30 33.6711 29.9015 33.8708 29.7261C34.0706 29.5508 34.1828 29.313 34.1828 29.065C34.1828 28.817 34.0706 28.5792 33.8708 28.4038C33.6711 28.2285 33.4001 28.13 33.1176 28.13ZM7.59865 20.67H28.8569C29.1379 20.67 29.4074 20.768 29.6061 20.9424C29.8047 21.1168 29.9164 21.3533 29.9164 21.6V22.67C29.2138 22.8826 28.5858 23.2512 28.0936 23.74C27.5695 24.2 27.3189 24.4 26.7151 24.4C26.1113 24.4 25.8607 24.2 25.3366 23.74C24.9895 23.364 24.5511 23.0608 24.0534 22.8525C23.5558 22.6443 23.0114 22.5362 22.46 22.5362C21.9087 22.5362 21.3643 22.6443 20.8667 22.8525C20.369 23.0608 19.9306 23.364 19.5835 23.74C19.0594 24.2 18.8088 24.4 18.205 24.4C17.6012 24.4 17.3506 24.2 16.8265 23.74C16.4794 23.364 16.041 23.0608 15.5433 22.8525C15.0456 22.6443 14.5013 22.5362 13.9499 22.5362C13.3986 22.5362 12.8542 22.6443 12.3565 22.8525C11.8589 23.0608 11.4205 23.364 11.0733 23.74C10.5493 24.2 10.2987 24.4 9.70625 24.4C9.11384 24.4 8.85182 24.2 8.32777 23.74C7.83871 23.2527 7.21486 22.8841 6.51638 22.67V21.6C6.51634 21.4762 6.54448 21.3536 6.59915 21.2394C6.65381 21.1253 6.7339 21.0218 6.83471 20.9352C6.93552 20.8486 7.05502 20.7805 7.1862 20.735C7.31739 20.6894 7.45761 20.6673 7.59865 20.67ZM6.53916 28.13V24.8L6.84676 25.06C7.19388 25.436 7.63228 25.7392 8.12995 25.9475C8.62762 26.1557 9.172 26.2638 9.72334 26.2638C10.2747 26.2638 10.8191 26.1557 11.3167 25.9475C11.8144 25.7392 12.2528 25.436 12.5999 25.06C13.124 24.6 13.3746 24.4 13.967 24.4C14.5594 24.4 14.8214 24.6 15.3455 25.06C15.6926 25.436 16.131 25.7392 16.6287 25.9475C17.1264 26.1557 17.6707 26.2638 18.2221 26.2638C18.7734 26.2638 19.3178 26.1557 19.8155 25.9475C20.3131 25.7392 20.7515 25.436 21.0987 25.06C21.6227 24.6 21.8733 24.4 22.4771 24.4C23.0809 24.4 23.3316 24.6 23.8556 25.06C24.2026 25.4378 24.6417 25.7425 25.1404 25.9519C25.6392 26.1613 26.185 26.27 26.7379 26.27C27.2908 26.27 27.8366 26.1613 28.3354 25.9519C28.8341 25.7425 29.2731 25.4378 29.6202 25.06L29.9392 24.79V28.13H6.53916Z" fill="white"/>
</g>
</svg>
