<svg width="37" height="28" viewBox="0 0 37 28" fill="none" xmlns="http://www.w3.org/2000/svg">
<g id="6137411_coronavirus_covid-19_family_healthcare_lockdown_icon 1" clip-path="url(#clip0_65_773)">
<path id="Vector" d="M35.3919 13.1905L31.0357 9.92325V2.65116C31.0357 2.42372 30.9152 2.2056 30.7008 2.04477C30.4864 1.88395 30.1956 1.7936 29.8923 1.7936H25.3189C25.0156 1.7936 24.7248 1.88395 24.5104 2.04477C24.2959 2.2056 24.1755 2.42372 24.1755 2.65116V4.7779L19.3848 1.18474C19.1705 1.02501 18.8808 0.935364 18.5787 0.935364C18.2766 0.935364 17.9868 1.02501 17.7726 1.18474L1.76545 13.1905C1.65829 13.2703 1.57323 13.3651 1.51518 13.4696C1.45713 13.5741 1.42725 13.6862 1.42725 13.7994C1.42725 13.9126 1.45713 14.0247 1.51518 14.1292C1.57323 14.2337 1.65829 14.3286 1.76545 14.4083L5.00119 16.8352C5.11701 16.9196 5.25535 16.9846 5.40709 17.026C5.55884 17.0673 5.72055 17.0842 5.88158 17.0753V25.8052C5.88158 26.0327 6.00204 26.2508 6.21647 26.4116C6.43089 26.5724 6.72171 26.6628 7.02495 26.6628H29.8923C30.1956 26.6628 30.4864 26.5724 30.7008 26.4116C30.9152 26.2508 31.0357 26.0327 31.0357 25.8052V17.041C31.1383 17.0491 31.2418 17.0491 31.3444 17.041C31.4949 17.0416 31.6441 17.02 31.7834 16.9773C31.9227 16.9347 32.0494 16.8718 32.1562 16.7923L35.3919 14.3654C35.5913 14.2064 35.7023 13.9963 35.7023 13.778C35.7023 13.5597 35.5913 13.3496 35.3919 13.1905ZM26.4622 3.50872H28.749V8.12238L26.4622 6.40726V3.50872ZM12.2044 24.7504V22.9839C12.2044 22.6427 12.3851 22.3155 12.7067 22.0743C13.0284 21.8331 13.4646 21.6975 13.9195 21.6975H16.2062C16.6591 21.6998 17.0924 21.8363 17.4115 22.0773C17.7307 22.3183 17.9098 22.6442 17.9098 22.9839V24.7504H12.2044ZM20.208 24.7504V23.3612C20.2049 23.1034 20.3378 22.8551 20.5776 22.6704C20.8175 22.4857 21.1449 22.3795 21.4886 22.375H23.4094C23.7551 22.375 24.0867 22.478 24.3311 22.6613C24.5755 22.8447 24.7129 23.0933 24.7129 23.3526V24.7419L20.208 24.7504ZM28.749 24.9477H26.9996V23.3612C26.9996 22.6462 26.6217 21.9604 25.9488 21.4541C25.2758 20.9478 24.3627 20.6622 23.4094 20.6599H22.5748C23.3908 20.6015 24.1456 20.3097 24.6825 19.845C25.2194 19.3804 25.4971 18.7785 25.4582 18.1644C25.4192 17.5502 25.0665 16.9709 24.4732 16.5465C23.8799 16.1222 23.0916 15.8855 22.2718 15.8855C21.452 15.8855 20.6637 16.1222 20.0704 16.5465C19.4771 16.9709 19.1244 17.5502 19.0854 18.1644C19.0464 18.7785 19.3242 19.3804 19.8611 19.845C20.3979 20.3097 21.1527 20.6015 21.9688 20.6599H21.4886C20.7202 20.6617 19.9736 20.8514 19.3619 21.2001C18.9933 20.8249 18.513 20.5194 17.9592 20.308C17.4053 20.0965 16.7933 19.9851 16.1719 19.9824H13.8852C12.8238 19.9824 11.806 20.2986 11.0555 20.8615C10.305 21.4244 9.88337 22.1878 9.88337 22.9839V24.9477H8.16832V15.6689L18.573 7.85654L24.6328 12.4016L25.9706 13.4049L28.749 15.5145V24.9477ZM22.2661 18.9448C22.0874 18.9448 21.9128 18.905 21.7642 18.8306C21.6157 18.7561 21.4999 18.6503 21.4316 18.5266C21.3632 18.4028 21.3453 18.2665 21.3802 18.1351C21.415 18.0037 21.501 17.883 21.6274 17.7883C21.7537 17.6935 21.9146 17.629 22.0898 17.6028C22.2651 17.5767 22.4467 17.5901 22.6117 17.6414C22.7768 17.6927 22.9178 17.7795 23.0171 17.8909C23.1163 18.0023 23.1693 18.1333 23.1693 18.2673C23.1709 18.3566 23.1485 18.4452 23.1037 18.5279C23.0588 18.6106 22.9924 18.6858 22.9082 18.7489C22.824 18.812 22.7238 18.8619 22.6135 18.8955C22.5032 18.9292 22.3851 18.9459 22.2661 18.9448ZM31.3444 14.9828L27.6056 12.1872L26.245 11.2267L19.3848 6.08139C19.1705 5.92167 18.8808 5.83202 18.5787 5.83202C18.2766 5.83202 17.9868 5.92167 17.7726 6.08139L5.80155 15.0171L4.1894 13.7994L18.573 3.00276L32.968 13.7994L31.3444 14.9828Z" fill="black"/>
<path id="Vector_2" d="M3.81224 6.44156C4.08453 6.44214 4.35404 6.40054 4.60391 6.31938C4.85377 6.23823 5.0786 6.11925 5.26432 5.9699C5.58951 6.10617 5.95084 6.18683 6.32245 6.2061C6.69406 6.22537 7.06676 6.18279 7.41386 6.08139C7.7798 6.33845 8.26166 6.4824 8.76303 6.48444C9.28088 6.45543 9.76498 6.28066 10.1182 5.99518C10.4715 5.7097 10.6678 5.33461 10.6678 4.94512C10.6678 4.55564 10.4715 4.18055 10.1182 3.89506C9.76498 3.60958 9.28088 3.43482 8.76303 3.4058H8.62583C8.40919 3.10883 8.09 2.86105 7.70175 2.68844C7.31349 2.51583 6.87046 2.42474 6.41912 2.42474C5.96778 2.42474 5.52476 2.51583 5.1365 2.68844C4.74824 2.86105 4.42906 3.10883 4.21242 3.4058C3.93381 3.36717 3.64754 3.37234 3.37173 3.421C3.09592 3.46966 2.83658 3.56074 2.61015 3.68847C2.38371 3.81621 2.1951 3.97781 2.05626 4.16306C1.91742 4.34831 1.83138 4.55316 1.80358 4.76464C1.77578 4.97612 1.80683 5.18963 1.89476 5.39165C1.98269 5.59367 2.12559 5.77979 2.31441 5.93823C2.50324 6.09667 2.73386 6.22398 2.99169 6.3121C3.24952 6.40021 3.52893 6.44722 3.81224 6.45014V6.44156ZM3.81224 4.22048C3.97305 4.23593 4.12419 4.28665 4.24672 4.36627C4.32373 4.39312 4.40763 4.40703 4.49255 4.40703C4.57747 4.40703 4.66137 4.39312 4.73837 4.36627C4.82 4.34029 4.89246 4.30042 4.95001 4.24981C5.00755 4.19921 5.04862 4.13926 5.06995 4.0747C5.13677 3.85285 5.29971 3.65386 5.53328 3.50882C5.76686 3.36378 6.05792 3.28086 6.36098 3.27302C6.66404 3.26518 6.96202 3.33287 7.20836 3.4655C7.4547 3.59813 7.63552 3.78823 7.72256 4.0061C7.74476 4.06117 7.78151 4.11233 7.83061 4.15652C7.87972 4.20072 7.94019 4.23706 8.00841 4.26336C8.15164 4.30587 8.31109 4.30587 8.45432 4.26336C8.57935 4.22847 8.71312 4.21479 8.84604 4.22329C8.97895 4.23179 9.10771 4.26226 9.22305 4.31252C9.3384 4.36279 9.43747 4.43158 9.51315 4.51398C9.58882 4.59637 9.63923 4.69032 9.66074 4.78906C9.68225 4.8878 9.67434 4.98889 9.63756 5.08507C9.60079 5.18124 9.53607 5.27012 9.44805 5.3453C9.36004 5.42048 9.25091 5.48011 9.12851 5.5199C9.00612 5.55969 8.87349 5.57865 8.74016 5.57543C8.59175 5.56725 8.44862 5.53063 8.3245 5.46906C8.20037 5.4075 8.09941 5.32306 8.03127 5.22383C7.94196 5.12732 7.80709 5.05988 7.65396 5.03517H7.55106C7.43142 5.03755 7.31566 5.06749 7.21948 5.12092C6.96297 5.25019 6.65648 5.31191 6.34813 5.29638C6.03979 5.28086 5.74705 5.18898 5.51586 5.03517C5.44883 4.99222 5.3701 4.96077 5.28519 4.94299C5.20027 4.92522 5.11121 4.92156 5.02421 4.93226C4.92776 4.94987 4.83908 4.98602 4.7669 5.03714C4.69473 5.08827 4.64155 5.15261 4.6126 5.22383C4.54303 5.33986 4.43077 5.43861 4.28901 5.50848C4.14725 5.57835 3.98186 5.61645 3.81224 5.6183C3.58874 5.59947 3.38231 5.51954 3.23242 5.39378C3.08252 5.26801 2.99965 5.10524 2.99965 4.93655C2.99965 4.76786 3.08252 4.60508 3.23242 4.47932C3.38231 4.35355 3.58874 4.27362 3.81224 4.25479V4.22048Z" fill="black"/>
<path id="Vector_3" d="M15.0286 14.657C14.3293 14.6553 13.6451 14.8093 13.0626 15.0994C12.4801 15.3895 12.0255 15.8028 11.7564 16.2868C11.4872 16.7709 11.4156 17.304 11.5506 17.8185C11.6857 18.3331 12.0212 18.8061 12.5149 19.1775C13.0085 19.549 13.638 19.8022 14.3237 19.9051C15.0093 20.0081 15.7203 19.9561 16.3665 19.7558C17.0128 19.5555 17.5652 19.2159 17.9539 18.7799C18.3426 18.344 18.5501 17.8313 18.5502 17.3069C18.5502 16.6055 18.1795 15.9328 17.5194 15.4361C16.8593 14.9394 15.9636 14.6593 15.0286 14.657ZM15.0286 18.233C14.7811 18.2347 14.5386 18.1811 14.3319 18.0791C14.1252 17.977 13.9637 17.8311 13.868 17.66C13.7722 17.4888 13.7466 17.3002 13.7943 17.118C13.842 16.9359 13.961 16.7686 14.1359 16.6374C14.3109 16.5061 14.534 16.4169 14.7769 16.3811C15.0197 16.3453 15.2712 16.3646 15.4994 16.4364C15.7276 16.5082 15.9221 16.6293 16.0581 16.7843C16.1942 16.9394 16.2657 17.1213 16.2634 17.3069C16.2488 17.5458 16.1126 17.7714 15.8829 17.9373C15.6532 18.1032 15.3475 18.1968 15.0286 18.1987V18.233Z" fill="black"/>
</g>
<defs>
<clipPath id="clip0_65_773">
<rect width="36.5878" height="27.4419" fill="white" transform="translate(0.164795 0.0784912)"/>
</clipPath>
</defs>
</svg>
