<svg width="28" height="28" viewBox="0 0 28 28" fill="none" xmlns="http://www.w3.org/2000/svg">
<g id="8757552_edit_edit post_tool_aplication_social media_icon 1">
<path id="Vector" fill-rule="evenodd" clip-rule="evenodd" d="M4.66675 5.83333C4.02242 5.83333 3.50008 6.35567 3.50008 7V23.3333C3.50008 23.9777 4.02242 24.5 4.66675 24.5H21.0001C21.6444 24.5 22.1667 23.9777 22.1667 23.3333V11.0833H24.5001V23.3333C24.5001 25.2664 22.9331 26.8333 21.0001 26.8333H4.66675C2.73376 26.8333 1.16675 25.2664 1.16675 23.3333V7C1.16675 5.06701 2.73376 3.5 4.66675 3.5H16.9167V5.83333H4.66675Z" fill="black"/>
<path id="Vector_2" fill-rule="evenodd" clip-rule="evenodd" d="M22.5085 1.50839C22.9641 1.05279 23.7028 1.05279 24.1584 1.50839L26.4917 3.84173C26.9474 4.29734 26.9474 5.03603 26.4917 5.49165L17.1584 14.825C17.0304 14.9531 16.8742 15.0496 16.7024 15.1068L13.2024 16.2735C12.7831 16.4133 12.321 16.3041 12.0085 15.9916C11.696 15.6792 11.5869 15.217 11.7266 14.7978L12.8933 11.2978C12.9506 11.1259 13.047 10.9698 13.1751 10.8417L22.5085 1.50839ZM15.0199 12.2969L14.6782 13.3221L15.7032 12.9804L24.0169 4.66669L23.3334 3.98327L15.0199 12.2969Z" fill="black"/>
</g>
</svg>
