<svg width="25" height="27" viewBox="0 0 25 27" fill="none" xmlns="http://www.w3.org/2000/svg">
<path id="Vector" fill-rule="evenodd" clip-rule="evenodd" d="M0 2.24995V24.7501C0 25.9932 1.11881 27 2.50006 27H23.4374C24.2997 27 25 26.37 25 25.5939C25 24.8175 24.2997 24.1875 23.4374 24.1875H4.37501C3.68738 24.1875 3.12509 23.6811 3.12509 23.0625C3.12509 22.4441 3.68745 21.9376 4.37501 21.9376H22.4998C23.881 21.9376 25 20.9305 25 19.6874V2.24995C25 1.00694 23.881 6.19962e-05 22.4998 6.19962e-05H13.75V10.1196C13.75 10.2657 13.6877 10.4118 13.5687 10.5244C13.3253 10.7435 12.9246 10.7435 12.6811 10.5244C12.5186 10.3723 9.99995 8.48809 9.99995 8.48809C9.99995 8.48809 7.48139 10.3723 7.3187 10.5244C7.07518 10.7435 6.67488 10.7435 6.43123 10.5244C6.31256 10.4118 6.24997 10.2657 6.24997 10.1196V0H2.50006C1.11874 0 0 1.00694 0 2.24995Z" fill="black"/>
</svg>
