<svg xmlns="http://www.w3.org/2000/svg" width="34" height="40" viewBox="0 0 34 40" fill="none">
    <g clip-path="url(#clip0_88_1911)">
        <path d="M19.2441 6.35466V0.748047H25.7578L24.1293 3.55206L25.7578 6.35466H19.2441Z" fill="#FFA8A6"/>
        <path d="M5.7308 22.7392L5.7048 22.336C5.63975 21.4975 5.20641 20.8167 4.62775 20.6458L4.11523 20.4939L4.16731 19.819C4.23745 18.9206 4.74655 18.269 5.37671 18.269C5.85864 18.269 6.29418 18.6379 6.48654 19.2084C6.68227 18.6284 7.09689 18.269 7.56921 18.269C8.20446 18.269 8.71524 18.9432 8.78371 19.8731H8.78255C8.79275 20.0001 8.78655 20.1784 8.74073 20.423C8.64457 20.9285 8.42394 21.3872 8.10095 21.7517L6.48654 23.5792L5.7308 22.7392Z" fill="#FFA8A6"/>
        <path d="M1.29523 24.5142C0.982962 24.1606 0.758389 23.7355 0.632287 23.2703H0.404297L0.528718 22.3653C0.593246 21.4837 1.0797 20.6006 1.88803 20.6006C2.42771 20.6006 2.917 21.014 3.13479 21.6538C3.35369 21.0038 3.81923 20.6006 4.34814 20.6006C5.06142 20.6006 5.63446 21.3559 5.71139 22.3967C5.71816 22.5113 5.71932 22.7188 5.66331 23.0161C5.55528 23.5836 5.30806 24.0993 4.94661 24.5083L3.13479 26.5593L1.29523 24.5142Z" fill="#FBD0C4"/>
        <path d="M4.65512 30.8416V25.4483L4.54199 24.9714L4.94758 24.5083C5.15118 24.2768 5.32374 23.9955 5.45894 23.6705L5.81193 22.8283L6.48733 23.5807L8.10174 21.7517C8.42414 21.3887 8.64478 20.9286 8.74151 20.4217C8.80204 20.0995 8.78791 19.8994 8.78223 19.8454C8.71041 18.9338 8.19053 18.2691 7.56999 18.2691C7.30412 18.2691 7.05579 18.3787 6.85161 18.5883L6.48617 18.9616L6.11678 18.5942C5.90634 18.3853 5.64389 18.2691 5.37749 18.2691L5.29715 18.283L4.65512 18.3466V15.7741C4.65512 12.4894 6.72487 9.81689 9.26868 9.81689C9.3083 9.81689 9.54023 9.8344 9.54023 9.8344C9.98486 9.86798 10.4216 9.98339 10.8379 10.1791C10.9816 10.2464 11.1066 10.315 11.2293 10.388C11.3821 10.4844 11.494 10.5612 11.6026 10.6437L11.666 10.6933C11.7622 10.7686 11.8606 10.8526 11.9568 10.9417L12.0133 10.9957C12.118 11.0965 12.2045 11.1871 12.2882 11.2806L12.3477 11.3493C12.4489 11.4676 12.5252 11.5611 12.5982 11.659L12.6639 11.7525C12.7498 11.8751 12.816 11.973 12.8777 12.0724L12.9501 12.1965C13.0208 12.3193 13.0779 12.42 13.1305 12.5238L13.1922 12.6552C13.2589 12.7962 13.3064 12.897 13.3489 13.0007C13.3704 13.0548 13.3896 13.1074 13.4088 13.1585C13.4677 13.3184 13.5027 13.4127 13.5338 13.5105C13.5536 13.5726 13.5712 13.6354 13.5882 13.6982L13.0581 14.07L13.6175 13.802C13.6408 13.8823 13.6628 13.9634 13.6826 14.0445C13.6995 14.1182 13.7132 14.1905 13.7267 14.2621L13.751 14.3848C13.7658 14.4578 13.7805 14.5302 13.7918 14.604C13.8059 14.6945 13.8161 14.788 13.8257 14.8793L13.8398 15.0057C13.8472 15.0641 13.8546 15.1211 13.8586 15.1817C13.8733 15.3753 13.8817 15.5739 13.8817 15.7741V30.8416H4.65512Z" fill="#CCCCCC"/>
        <path d="M21.4803 30.8416H17.1377V39.2522H21.4803V30.8416Z" fill="#CCCCCC"/>
        <path d="M13.8817 30.8416V15.7741C13.8817 15.5549 13.8709 15.3395 13.8528 15.1255L13.8291 14.9276C13.8127 14.7829 13.7962 14.6376 13.7719 14.4944L13.7278 14.2782C13.7012 14.1453 13.673 14.0145 13.6401 13.8867C13.6221 13.8173 13.6023 13.7494 13.5824 13.6822C13.5417 13.5448 13.5027 13.4222 13.4591 13.2994C13.436 13.2337 13.411 13.1694 13.3856 13.103C13.3364 12.9781 13.2855 12.8583 13.2306 12.74L13.1486 12.5647C13.0869 12.4413 13.0196 12.3207 12.9506 12.2024L12.8742 12.068C12.786 11.9263 12.6938 11.7919 12.597 11.6619L12.5541 11.6005C12.4471 11.4603 12.3284 11.3142 12.2028 11.1813L10.9238 9.81689H19.2442H29.549C31.6844 9.81689 33.4215 12.0607 33.4215 14.8172V30.8416H13.8817Z" fill="#C0DFCF"/>
        <path d="M14.4603 31.5895H4.0752V25.4482C4.0752 25.0351 4.33429 24.7003 4.65444 24.7003C4.97459 24.7003 5.23368 25.0351 5.23368 25.4482V30.0936H13.3018V15.774C13.3018 12.9017 11.4922 10.5647 9.268 10.5647C7.04324 10.5647 5.23368 12.9017 5.23368 15.774V18.2676C5.23368 18.6806 4.97459 19.0155 4.65444 19.0155C4.33429 19.0155 4.0752 18.6806 4.0752 18.2676V15.774C4.0752 12.0766 6.40462 9.06885 9.268 9.06885C12.1309 9.06885 14.4603 12.0766 14.4603 15.774V31.5895Z" fill="#43525B"/>
        <path d="M33.9998 31.5895H13.8807C13.5605 31.5895 13.3015 31.2546 13.3015 30.8415C13.3015 30.4285 13.5605 30.0936 13.8807 30.0936H32.8413V14.8171C32.8413 12.4722 31.3638 10.5647 29.548 10.5647H9.6269C9.29598 10.633 8.95996 10.2857 8.95996 9.83429V9.08635L9.5392 9.06885H29.548C32.003 9.06885 33.9998 11.6475 33.9998 14.8171V31.5895Z" fill="#43525B"/>
        <path d="M19.2433 19.718C18.9232 19.718 18.6641 19.3831 18.6641 18.97V2.85145C18.6641 2.43837 18.9232 2.10352 19.2433 2.10352C19.5635 2.10352 19.8226 2.43837 19.8226 2.85145V18.97C19.8226 19.3831 19.5635 19.718 19.2433 19.718Z" fill="#43525B"/>
        <path d="M26.9166 7.10249H18.6641V0H26.916L24.8525 3.55196L26.9166 7.10249ZM19.8226 5.60661H24.5985L23.4044 3.55196L24.5991 1.49588H19.8226V5.60661Z" fill="#43525B"/>
        <path d="M22.0597 40H16.5586V30.0935H22.0597V40ZM17.7171 38.5041H20.9012V31.5894H17.7171V38.5041Z" fill="#43525B"/>
        <path d="M20.9378 33.6936H19.8517C19.5316 33.6936 19.2725 33.3587 19.2725 32.9457C19.2725 32.5326 19.5316 32.1978 19.8517 32.1978H20.9378C21.258 32.1978 21.517 32.5326 21.517 32.9457C21.517 33.3587 21.258 33.6936 20.9378 33.6936Z" fill="#43525B"/>
        <path d="M20.9378 35.7964H19.8517C19.5316 35.7964 19.2725 35.4616 19.2725 35.0485C19.2725 34.6355 19.5316 34.3005 19.8517 34.3005H20.9378C21.258 34.3005 21.517 34.6355 21.517 35.0485C21.517 35.4616 21.258 35.7964 20.9378 35.7964Z" fill="#43525B"/>
        <path d="M20.9378 37.8979H19.8517C19.5316 37.8979 19.2725 37.5629 19.2725 37.1499C19.2725 36.7368 19.5316 36.402 19.8517 36.402H20.9378C21.258 36.402 21.517 36.7368 21.517 37.1499C21.517 37.5629 21.258 37.8979 20.9378 37.8979Z" fill="#43525B"/>
        <path d="M3.13435 27.2323C3.01329 27.2323 2.89223 27.1783 2.79439 27.0695L0.949153 25.0185C0.501687 24.5097 0.198511 23.8747 0.0672539 23.1768C-0.0317389 22.649 0.0039425 22.3156 0.0174968 22.2261C0.108033 20.9439 0.915209 19.9275 1.88759 19.9275C2.3526 19.9275 2.79097 20.1496 3.12809 20.5309C3.45734 20.1463 3.88441 19.9275 4.34769 19.9275C5.32233 19.9275 6.12956 20.9442 6.22572 22.2925C6.23192 22.3156 6.26754 22.649 6.16855 23.1771C6.03677 23.8779 5.73243 24.5134 5.28896 25.0148L3.47825 27.0654C3.37983 27.1768 3.25709 27.2323 3.13435 27.2323ZM1.88759 21.2736C1.39094 21.2736 1.08945 21.8489 1.04872 22.4171C1.04421 22.4599 1.03233 22.6019 1.08093 22.8594C1.16127 23.2877 1.35248 23.6833 1.63359 24.0032L3.13093 25.6674L4.60169 24.0021C4.88338 23.684 5.07459 23.2892 5.15487 22.8597C5.20353 22.6019 5.19165 22.4599 5.19165 22.4584C5.14699 21.8485 4.8455 21.2736 4.34769 21.2736C4.02413 21.2736 3.74922 21.5165 3.61234 21.9226C3.52974 22.168 3.34195 22.3266 3.13487 22.3269C2.92779 22.3269 2.74006 22.1691 2.65688 21.9245C2.52226 21.5293 2.22019 21.2736 1.88759 21.2736Z" fill="#43525B"/>
        <path d="M6.48665 24.2536C6.36501 24.2536 6.24395 24.1993 6.14611 24.0901L5.53686 23.4108C5.31855 23.1679 5.2948 22.7428 5.48259 22.4612C5.67206 22.1793 6.0013 22.1493 6.21794 22.3919L6.48381 22.6884L7.75827 21.2454C7.99923 20.9738 8.16327 20.6341 8.23458 20.2616C8.27356 20.0519 8.26452 19.9333 8.26452 19.9333C8.22722 19.4205 7.97942 18.9421 7.56932 18.9421C7.30402 18.9421 7.07777 19.1422 6.96464 19.4779C6.88146 19.7229 6.69367 19.8814 6.48665 19.8814H6.48607C6.27847 19.881 6.09126 19.7222 6.00866 19.4764C5.89947 19.1517 5.65115 18.9421 5.37682 18.9421C4.96724 18.9421 4.71891 19.4209 4.68555 19.8938C4.68103 19.9355 4.67199 20.0519 4.71214 20.2631C4.7806 20.6243 4.60921 20.9884 4.32972 21.0768C4.05087 21.1633 3.76803 20.9445 3.69962 20.583C3.6074 20.0976 3.64187 19.7861 3.6549 19.7025C3.73524 18.5309 4.47911 17.5959 5.37682 17.5959C5.78918 17.5959 6.17722 17.7841 6.48155 18.1095C6.78021 17.7815 7.15921 17.5959 7.56932 17.5959C8.46819 17.5959 9.21147 18.5309 9.29911 19.7711C9.30421 19.7879 9.33763 20.0973 9.24767 20.5808C9.12435 21.2258 8.84719 21.805 8.44554 22.2585L6.83055 24.0868C6.73213 24.1981 6.60939 24.2536 6.48665 24.2536Z" fill="#43525B"/>
    </g>
    <defs>
        <clipPath id="clip0_88_1911">
            <rect width="34" height="40" fill="white"/>
        </clipPath>
    </defs>
</svg>
