<svg width="28" height="28" viewBox="0 0 28 28" fill="none" xmlns="http://www.w3.org/2000/svg">
<path id="XMLID_219_" d="M27.8633 14.5468C27.5544 15.4288 26.7891 15.9987 25.9127 15.9987H25.1997V26.9988C25.1997 27.5508 24.7816 27.9988 24.2664 27.9988H18.6667V20.9988C18.6667 18.2418 16.5733 15.9987 14.0002 15.9987C11.4271 15.9987 9.33374 18.2418 9.33374 20.9988V27.9988H3.73399C3.21881 27.9988 2.8007 27.5508 2.8007 26.9988V15.9987H2.08673C1.21037 15.9987 0.445069 15.4297 0.136149 14.5477C-0.17277 13.6657 0.0540197 12.6958 0.71479 12.0778L11.6147 1.01775C12.953 -0.33925 15.0483 -0.33925 16.3857 1.01775L27.3117 12.1037C27.9445 12.6947 28.1722 13.6648 27.8633 14.5468Z" fill="black"/>
</svg>
