<svg width="28" height="28" viewBox="0 0 28 28" fill="none" xmlns="http://www.w3.org/2000/svg">
<g id="1564535_customer_user_userphoto_account_person_icon 1" clip-path="url(#clip0_70_136)">
<g id="icons">
<path id="user2" d="M14 0C6.3 0 0 6.3 0 14C0 21.7 6.3 28 14 28C21.7 28 28 21.7 28 14C28 6.3 21.7 0 14 0ZM14 4.66667C16.5667 4.66667 18.6667 7.23333 18.6667 10.5C18.6667 13.7667 16.5667 16.3333 14 16.3333C11.4333 16.3333 9.33333 13.7667 9.33333 10.5C9.33333 7.23333 11.4333 4.66667 14 4.66667ZM21.7 22.75C19.7167 24.5 16.9167 25.6667 14 25.6667C11.0833 25.6667 8.28333 24.5 6.3 22.75C5.83333 22.2833 5.71667 21.5833 6.18333 21.1167C7.46667 19.6 9.21667 18.55 11.0833 17.9667C12.0167 18.4333 12.95 18.6667 14 18.6667C15.05 18.6667 15.9833 18.4333 16.9167 17.9667C18.9 18.55 20.5333 19.6 21.8167 21.1167C22.2833 21.5833 22.2833 22.2833 21.7 22.75Z" fill="black"/>
</g>
</g>
<defs>
<clipPath id="clip0_70_136">
<rect width="28" height="28" fill="white"/>
</clipPath>
</defs>
</svg>
