<svg width="30" height="23" viewBox="0 0 30 23" fill="none" xmlns="http://www.w3.org/2000/svg">
<g id="3671876_thermometer_icon 1" clip-path="url(#clip0_65_766)">
<path id="Vector" d="M13.4848 13.1038V8.45496H16.4575V13.1038C17.4492 13.3668 18.2851 13.8842 18.8173 14.5647C19.3496 15.2452 19.5439 16.045 19.3661 16.8225C19.1882 17.6001 18.6495 18.3055 17.8453 18.814C17.0411 19.3226 16.023 19.6015 14.9711 19.6015C13.9192 19.6015 12.9012 19.3226 12.097 18.814C11.2927 18.3055 10.7541 17.6001 10.5762 16.8225C10.3983 16.045 10.5927 15.2452 11.1249 14.5647C11.6572 13.8842 12.493 13.3668 13.4848 13.1038ZM11.9984 12.4014C10.8649 12.8923 9.97905 13.6499 9.47819 14.5568C8.97733 15.4637 8.88946 16.4693 9.2282 17.4175C9.56695 18.3657 10.3134 19.2035 11.3517 19.8011C12.3901 20.3987 13.6623 20.7226 14.9711 20.7226C16.2799 20.7226 17.5522 20.3987 18.5905 19.8011C19.6289 19.2035 20.3753 18.3657 20.7141 17.4175C21.0528 16.4693 20.9649 15.4637 20.4641 14.5568C19.9632 13.6499 19.0774 12.8923 17.9439 12.4014V5.11049C17.9439 4.51915 17.6307 3.95203 17.0732 3.53388C16.5157 3.11574 15.7596 2.88084 14.9711 2.88084C14.1827 2.88084 13.4266 3.11574 12.8691 3.53388C12.3116 3.95203 11.9984 4.51915 11.9984 5.11049V12.3903V12.4014ZM9.02561 11.2755V5.11049C9.02561 3.92781 9.65201 2.79356 10.767 1.95728C11.882 1.121 13.3943 0.651184 14.9711 0.651184C16.548 0.651184 18.0602 1.121 19.1752 1.95728C20.2903 2.79356 20.9167 3.92781 20.9167 5.11049V11.2755C22.2697 12.1762 23.2249 13.3646 23.6549 14.6826C24.0849 16.0006 23.9694 17.3856 23.3238 18.6532C22.6781 19.9207 21.533 21.0106 20.0408 21.7778C18.5486 22.545 16.7802 22.9531 14.9711 22.9477C13.1657 22.9472 11.4029 22.5356 9.91602 21.7675C8.4291 20.9994 7.28803 19.9109 6.64368 18.6459C5.99934 17.381 5.88207 15.9991 6.30738 14.683C6.73268 13.367 7.68054 12.1788 9.02561 11.2755Z" fill="black"/>
</g>
<defs>
<clipPath id="clip0_65_766">
<rect width="29.7276" height="22.2965" fill="white" transform="translate(0.107422 0.651184)"/>
</clipPath>
</defs>
</svg>
