<svg width="31" height="31" viewBox="0 0 31 31" fill="none" xmlns="http://www.w3.org/2000/svg">
<g id="1564505_close_delete_exit_remove_icon 1">
<g id="icons">
<path id="exit" d="M19.1166 15.5L23.7666 10.85C24.7999 9.81666 24.7999 8.26666 23.7666 7.23333C22.7333 6.19999 21.1833 6.19999 20.1499 7.23333L15.4999 11.8833L10.8499 7.23333C9.81659 6.19999 8.26659 6.19999 7.23325 7.23333C6.19992 8.26666 6.19992 9.81666 7.23325 10.85L11.8833 15.5L7.23325 20.15C6.19992 21.1833 6.19992 22.7333 7.23325 23.7667C7.74992 24.2833 8.39575 24.5417 9.04159 24.5417C9.68742 24.5417 10.3333 24.2833 10.8499 23.7667L15.4999 19.1167L20.1499 23.7667C20.6666 24.2833 21.3124 24.5417 21.9583 24.5417C22.6041 24.5417 23.2499 24.2833 23.7666 23.7667C24.7999 22.7333 24.7999 21.1833 23.7666 20.15L19.1166 15.5Z" fill="black"/>
</g>
</g>
</svg>
